<svg width="16" height="21" viewBox="0 0 16 21" fill="none" xmlns="http://www.w3.org/2000/svg">
<path d="M15.168 10.6423L1.036 20.0637C0.935608 20.1305 0.818974 20.1688 0.698522 20.1745C0.57807 20.1803 0.45831 20.1533 0.351999 20.0964C0.245687 20.0395 0.156805 19.9548 0.0948181 19.8513C0.0328314 19.7479 6.22939e-05 19.6296 0 19.509V0.666323C6.22939e-05 0.545733 0.0328314 0.427419 0.0948181 0.32398C0.156805 0.220542 0.245687 0.135853 0.351999 0.078935C0.45831 0.0220166 0.57807 -0.00500048 0.698522 0.000761642C0.818974 0.00652377 0.935608 0.0448495 1.036 0.111656L15.168 9.53299C15.2593 9.59387 15.3342 9.67635 15.3859 9.77311C15.4377 9.86987 15.4648 9.97791 15.4648 10.0877C15.4648 10.1974 15.4377 10.3054 15.3859 10.4022C15.3342 10.499 15.2593 10.5814 15.168 10.6423Z" fill="#1A1A1A"/>
</svg>
